<mxfile host="app.diagrams.net" modified="2021-04-28T16:32:13.221Z" agent="5.0 (Windows NT 10.0; Win64; x64) AppleWebKit/537.36 (KHTML, like Gecko) Chrome/86.0.4240.75 Safari/537.36" etag="IFTyEXeZwBiUDX5Xw95-" version="14.6.6" type="github">
  <diagram id="IdFNQRORAUfkKE0ZZKIm" name="Page-1">
    <mxGraphModel dx="1422" dy="794" grid="1" gridSize="10" guides="1" tooltips="1" connect="1" arrows="1" fold="1" page="1" pageScale="1" pageWidth="827" pageHeight="1169" math="0" shadow="0">
      <root>
        <mxCell id="0" />
        <mxCell id="1" parent="0" />
        <mxCell id="OuCQrOUt6wQ1KXRvLftJ-1" value="" style="rounded=0;whiteSpace=wrap;html=1;" vertex="1" parent="1">
          <mxGeometry x="70" y="50" width="730" height="460" as="geometry" />
        </mxCell>
        <mxCell id="OuCQrOUt6wQ1KXRvLftJ-7" value="供应商主数据" style="rounded=0;whiteSpace=wrap;html=1;" vertex="1" parent="1">
          <mxGeometry x="90" y="330" width="90" height="30" as="geometry" />
        </mxCell>
        <mxCell id="OuCQrOUt6wQ1KXRvLftJ-8" value="srm" style="ellipse;whiteSpace=wrap;html=1;aspect=fixed;" vertex="1" parent="1">
          <mxGeometry x="230" y="240" width="80" height="80" as="geometry" />
        </mxCell>
        <mxCell id="OuCQrOUt6wQ1KXRvLftJ-9" value="sdps" style="ellipse;whiteSpace=wrap;html=1;aspect=fixed;" vertex="1" parent="1">
          <mxGeometry x="610" y="240" width="80" height="80" as="geometry" />
        </mxCell>
        <mxCell id="OuCQrOUt6wQ1KXRvLftJ-10" value="招商引入" style="rounded=0;whiteSpace=wrap;html=1;" vertex="1" parent="1">
          <mxGeometry x="348" y="340" width="90" height="30" as="geometry" />
        </mxCell>
        <mxCell id="OuCQrOUt6wQ1KXRvLftJ-11" value="日常管理" style="rounded=0;whiteSpace=wrap;html=1;" vertex="1" parent="1">
          <mxGeometry x="90" y="210" width="110" height="30" as="geometry" />
        </mxCell>
        <mxCell id="OuCQrOUt6wQ1KXRvLftJ-12" value="考核管理" style="rounded=0;whiteSpace=wrap;html=1;" vertex="1" parent="1">
          <mxGeometry x="250" y="130" width="90" height="30" as="geometry" />
        </mxCell>
        <mxCell id="OuCQrOUt6wQ1KXRvLftJ-13" value="合同协议" style="rounded=0;whiteSpace=wrap;html=1;" vertex="1" parent="1">
          <mxGeometry x="315" y="190" width="100" height="30" as="geometry" />
        </mxCell>
        <mxCell id="OuCQrOUt6wQ1KXRvLftJ-14" value="权益赋能" style="rounded=0;whiteSpace=wrap;html=1;" vertex="1" parent="1">
          <mxGeometry x="90" y="280" width="100" height="30" as="geometry" />
        </mxCell>
        <mxCell id="OuCQrOUt6wQ1KXRvLftJ-15" value="淘汰管理" style="rounded=0;whiteSpace=wrap;html=1;" vertex="1" parent="1">
          <mxGeometry x="250" y="400" width="95" height="30" as="geometry" />
        </mxCell>
        <mxCell id="OuCQrOUt6wQ1KXRvLftJ-16" value="数据中心" style="rounded=0;whiteSpace=wrap;html=1;" vertex="1" parent="1">
          <mxGeometry x="340" y="260" width="106" height="30" as="geometry" />
        </mxCell>
        <mxCell id="OuCQrOUt6wQ1KXRvLftJ-17" value="基础管理" style="rounded=0;whiteSpace=wrap;html=1;" vertex="1" parent="1">
          <mxGeometry x="110" y="140" width="110" height="30" as="geometry" />
        </mxCell>
        <mxCell id="OuCQrOUt6wQ1KXRvLftJ-18" value="系统管理" style="rounded=0;whiteSpace=wrap;html=1;" vertex="1" parent="1">
          <mxGeometry x="120" y="390" width="90" height="30" as="geometry" />
        </mxCell>
      </root>
    </mxGraphModel>
  </diagram>
</mxfile>
